<?xml version="1.0" encoding="utf-8"?>
<!-- Generator: Adobe Illustrator 28.3.0, SVG Export Plug-In . SVG Version: 6.00 Build 0)  -->
<svg version="1.1" id="Layer_1" xmlns="http://www.w3.org/2000/svg" xmlns:xlink="http://www.w3.org/1999/xlink" x="0px" y="0px"
	 viewBox="0 0 957.5 410" style="enable-background:new 0 0 957.5 410;" xml:space="preserve">
<style type="text/css">
	.st0{fill:#FFFFFF;}
</style>
<g id="Logo">
	<g>
		<g>
			<path class="st0" d="M219.7,85.2v35.9c0,28.7-23.2,51.8-51.8,51.8H88.9V85.2H219.7z"/>
			<path class="st0" d="M88.9,193.7h78.9c28.7,0,51.8,23.2,51.8,51.8v79.3h-56.9c-40.7,0-73.8-33.1-73.8-73.8V193.7z"/>
			<path class="st0" d="M329.1,159v13.9h-36.7c-28.7,0-51.8-23.2-51.8-51.8V85.2h14.7C296,85.2,329.1,118.3,329.1,159z"/>
			<path class="st0" d="M292.4,193.7h36.7v131.2h-88.6v-79.3C240.4,217,263.7,193.7,292.4,193.7z"/>
		</g>
		<g>
			<g>
				<path class="st0" d="M701.1,294.2c-8.7,0-17.1-4.2-22.4-11.1L595,173.6V271c0,12.7-10.3,23-23,23h-7.5V116h7.4
					c8.7,0,17.1,4.2,22.4,11.1L678,236.5v-97.4c0-12.7,10.3-23,23-23h7.5v178.3h-7.4V294.2z"/>
			</g>
			<g>
				<path class="st0" d="M399.7,294.2V116h67.9c12.1,0,22.1,2.3,30.1,6.7c8,4.4,14.1,10.2,18,17.1c0.4,0.7,0.7,1.2,0.9,1.7
					c2.3,4.6,3.8,9.4,4.6,14.3c0.1,1.1,0.3,2.1,0.3,3.2c0.1,1.1,0.1,2.1,0.1,3.2c0,9.4-2.7,17.8-7.9,24.9c-0.3,0.3-0.4,0.7-0.7,0.9
					v0.1c-2.4,3.2-5.5,6.2-9,8.7l-1.9,1.5l2,1.3c6.2,3.9,11.3,8.4,15.3,13.8c6.3,8.3,9.5,18.2,9.5,29.5c0,9.1-2.3,17.7-6.8,25.5
					c-4.6,7.6-11.3,13.9-20,18.6c-8.7,4.7-19.6,7-32.3,7L399.7,294.2L399.7,294.2z M430.4,267.4h40.9c8.7,0,15.4-2.7,20.1-8
					c4.8-5.5,7.1-11.5,7.1-18.6c0-4.7-1.1-9.2-3.2-13.3c-2.1-4-5.2-7.4-9.2-9.8c-4-2.4-9-3.6-14.7-3.6h-40.9V267.4z M430.4,187.1
					H467c7.4,0,13.3-1.9,17.7-5.6c4.4-3.8,6.6-9.2,6.6-16.6c0-2-0.1-3.9-0.5-5.6c-0.3-1.1-0.4-2.1-0.8-3.1c-1.1-3.2-2.8-5.9-5.2-7.9
					c-4.4-3.8-10.3-5.6-17.7-5.6h-36.6V187.1z"/>
			</g>
			<g>
				<path class="st0" d="M753,294.2V115.8h115.6v4c0,12.6-10.2,22.8-22.8,22.8h-62.4v47.7h80.9v7.4c0,11.4-9.2,20.8-20.8,20.8h-60
					v54.7c0,11.7-9.5,21.2-21.2,21.2L753,294.2L753,294.2z"/>
			</g>
		</g>
	</g>
</g>
</svg>
