<?xml version="1.0" encoding="utf-8"?>
<!-- Generator: Adobe Illustrator 28.3.0, SVG Export Plug-In . SVG Version: 6.00 Build 0)  -->
<svg version="1.1" id="Layer_1" xmlns="http://www.w3.org/2000/svg" xmlns:xlink="http://www.w3.org/1999/xlink" x="0px" y="0px"
	 viewBox="0 0 999 181" style="enable-background:new 0 0 999 181;" xml:space="preserve">
<style type="text/css">
	.st0{enable-background:new    ;}
	.st1{fill:#FFFFFF;}
</style>
<g class="st0">
	<path class="st1" d="M91.2,114.2v19.3H27.8V31h62.7v19.3H48v21.8h38.8v19H48v23H91.2z"/>
	<path class="st1" d="M182.9,96.9c0,21.8-16.1,38.7-35.7,38.7c-10.7,0-18.5-4-23.7-10.7v37.9h-18.9V60.3h18.9v8.6
		c5.3-6.7,13-10.7,23.7-10.7C166.8,58.2,182.9,75,182.9,96.9z M164,96.9c0-12.3-8.6-20.7-20.4-20.7c-11.6,0-20.2,8.3-20.2,20.7
		c0,12.3,8.6,20.7,20.2,20.7C155.4,117.5,164,109.2,164,96.9z"/>
	<path class="st1" d="M192.4,96.9c0-21.8,17.1-38.7,38.7-38.7c21.5,0,38.8,16.8,38.8,38.7c0,21.8-17.3,38.7-38.8,38.7
		C209.6,135.5,192.4,118.7,192.4,96.9z M251,96.9c0-11.9-8.6-20.2-19.9-20.2c-11.1,0-19.8,8.3-19.8,20.2c0,11.9,8.6,20.2,19.8,20.2
		C242.4,117.1,251,108.7,251,96.9z"/>
	<path class="st1" d="M338.5,112.1c0,15.8-13.8,23.4-29.4,23.4c-14.6,0-25.5-6.2-30.8-17.4l16.4-9.2c2.1,6,7,9.5,14.4,9.5
		c6,0,10.1-2,10.1-6.3c0-10.7-37.8-4.8-37.8-30.6c0-14.9,12.7-23.3,27.8-23.3c11.9,0,22.1,5.4,27.8,15.5l-16.1,8.8
		c-2.2-4.7-6.3-7.5-11.7-7.5c-4.7,0-8.5,2.1-8.5,6C300.7,91.9,338.5,85.2,338.5,112.1z"/>
</g>
</svg>
