<?xml version="1.0" encoding="UTF-8"?>
<svg id="Layer_1" data-name="Layer 1" xmlns="http://www.w3.org/2000/svg" xmlns:xlink="http://www.w3.org/1999/xlink" viewBox="0 0 999 181">
  <defs>
    <style>
      .cls-1 {
        fill: url(#linear-gradient-4);
      }

      .cls-2 {
        fill: url(#linear-gradient-3);
      }

      .cls-3 {
        fill: url(#linear-gradient-2);
      }

      .cls-4 {
        fill: url(#linear-gradient);
      }

      .cls-5 {
        fill: #705e5d;
      }

      .cls-6 {
        fill: #e49556;
      }

      .cls-7 {
        fill: #fff;
      }

      .cls-8 {
        fill: #9c9a8c;
      }
    </style>
    <linearGradient id="linear-gradient" x1="54.77" y1="54.12" x2="54.77" y2="121.89" gradientTransform="translate(0 182) scale(1 -1)" gradientUnits="userSpaceOnUse">
      <stop offset="0" stop-color="#e82e2e"/>
      <stop offset="1" stop-color="#facc79"/>
    </linearGradient>
    <linearGradient id="linear-gradient-2" x1="89.99" y1="91.39" x2="89.99" y2="162.58" gradientTransform="translate(0 182) scale(1 -1)" gradientUnits="userSpaceOnUse">
      <stop offset="0" stop-color="#4da6ff"/>
      <stop offset="1" stop-color="#16549e"/>
    </linearGradient>
    <linearGradient id="linear-gradient-3" x1="125.27" y1="129.51" x2="125.27" y2="55.88" gradientTransform="translate(0 182) scale(1 -1)" gradientUnits="userSpaceOnUse">
      <stop offset="0" stop-color="#00738f"/>
      <stop offset="1" stop-color="#007b60"/>
    </linearGradient>
    <linearGradient id="linear-gradient-4" x1="125.27" y1="129.51" x2="125.27" y2="55.88" gradientTransform="translate(0 182) scale(1 -1)" gradientUnits="userSpaceOnUse">
      <stop offset="0" stop-color="#38badd"/>
      <stop offset="1" stop-color="#097"/>
    </linearGradient>
  </defs>
  <path class="cls-6" d="M33.39,76.2c7.64,7.47,7.6,20.47-.23,27.86-7.12,7.09-19.12,7.36-26.55.64-13.27-11.61-5.26-33.71,12.26-34.24,5.26-.22,10.73,1.91,14.48,5.7l.03.03h0Z"/>
  <path class="cls-4" d="M68.51,41.04c6.76,6.65,7.56,17.65,2.07,25.15-.91,1.28-2.01,2.44-3.06,3.62-2.53,2.82-4.44,5.91-5.79,9.36-3.8,9.6-2.26,21.1,4.05,29.28,1.17,1.52,2.64,2.75,3.89,4.19,6.62,7.54,6.2,19.47-.97,26.51-14.37,14.14-37.95.28-32.63-19.16.76-2.71,2.19-5.32,4.11-7.52,2.31-2.54,4.63-5.2,6.17-8.24,3.07-5.76,4.18-12.56,3.14-19-.77-4.82-2.7-9.48-5.67-13.39-.83-1.08-1.8-2.03-2.75-2.99-7.45-7.13-8.01-19.52-.75-27.25,7.23-8.09,20.56-8.41,28.15-.6l.03.03h.01Z"/>
  <path class="cls-3" d="M103.81,5.74c6.76,6.65,7.56,17.65,2.07,25.15-.91,1.28-2.01,2.44-3.06,3.61-10.08,10.89-10.46,28.47-.86,39.76.89,1.08,1.89,2.11,2.8,3.18,7.5,8.4,5.86,22.17-3.28,28.59-6.16,4.54-14.66,4.96-21.25,1.11-10.33-5.83-12.96-20.1-5.41-29.21,2.42-2.79,5.05-5.58,6.68-8.87,4.55-8.49,4.67-19.16.33-27.74-1.03-2.07-2.29-4.01-3.78-5.79-1.08-1.31-2.31-2.54-3.36-3.87-7.76-9.45-4.41-24.56,6.89-29.78,7.34-3.54,16.39-2.04,22.19,3.81l.03.03v.02Z"/>
  <path class="cls-8" d="M104.01,146.82c7.07,6.97,7.66,18.7,1.2,26.32-7.48,9.21-22.03,9.4-29.73.42-6.7-7.42-6.45-19.38.61-26.51,7.39-7.86,20.41-7.92,27.9-.26l.03.03h0Z"/>
  <path class="cls-2" d="M139.11,41.04c5.83,5.75,7.33,14.84,3.84,22.14-1.13,2.5-2.98,4.62-4.83,6.63-8.84,9.58-10.37,24.57-3.69,35.74.75,1.28,1.59,2.5,2.52,3.65,1.57,1.95,3.51,3.75,4.85,5.92,2.93,4.58,3.78,10.39,2.31,15.63-2.95,11.06-15.4,17.29-26.02,12.96-9.23-3.5-14.44-14.19-11.59-23.57.96-3.71,3.44-6.97,6.1-9.75,3.46-3.89,5.82-8.5,6.95-13.56,2.29-9.88-.81-20.63-7.87-27.87-7.41-7.27-8.11-19.62-.7-27.43,7.24-8.03,20.51-8.3,28.08-.52l.03.03h.02Z"/>
  <path class="cls-1" d="M139.11,41.04c5.83,5.75,7.33,14.84,3.84,22.14-1.13,2.5-2.98,4.62-4.83,6.63-8.84,9.58-10.37,24.57-3.69,35.74.75,1.28,1.59,2.5,2.52,3.65,1.57,1.95,3.51,3.75,4.85,5.92,2.93,4.58,3.78,10.39,2.31,15.63-2.95,11.06-15.4,17.29-26.02,12.96-9.23-3.5-14.44-14.19-11.59-23.57.96-3.71,3.44-6.97,6.1-9.75,3.46-3.89,5.82-8.5,6.95-13.56,2.29-9.88-.81-20.63-7.87-27.87-7.41-7.27-8.11-19.62-.7-27.43,7.24-8.03,20.51-8.3,28.08-.52l.03.03h.02Z"/>
  <path class="cls-5" d="M174.45,76.38c7.13,7.07,7.65,18.72,1.16,26.36-7.48,9.15-21.96,9.34-29.67.41-4.85-5.38-6.25-13.39-3.57-20.11,5.05-13.02,22.15-16.67,32.04-6.7l.03.03h0Z"/>
  <path class="cls-7" d="M214.47,70.06c0-1.6.3-3.08.89-4.45.59-1.36,1.38-2.54,2.36-3.52s2.14-1.75,3.47-2.31c1.34-.56,2.71-.85,4.14-.85h52.97c1.6,0,3.09.3,4.45.89,1.37.59,2.54,1.38,3.52,2.36.98.98,1.75,2.14,2.32,3.47.56,1.33.84,2.71.84,4.14v27.15c0,1.6-.3,3.09-.89,4.45-.59,1.37-1.38,2.54-2.36,3.52-.98.98-2.14,1.75-3.47,2.31-1.33.56-2.72.85-4.14.85h-48.69v13.17h-15.4v-51.19h0ZM274.02,93.11v-19.23h-44.15v19.23h44.15Z"/>
  <path class="cls-7" d="M296.54,58.93h15.4v47.36h46.2v14.96h-50.47c-1.6,0-3.09-.3-4.45-.89-1.37-.59-2.54-1.38-3.52-2.36-.98-.98-1.75-2.14-2.31-3.47-.56-1.34-.85-2.72-.85-4.14v-51.45h0Z"/>
  <path class="cls-7" d="M376.66,70.06c.95-3.2,2.54-5.86,4.76-7.97,2.23-2.11,5.3-3.16,9.21-3.16h18.6c3.98,0,7.15,1.05,9.53,3.16,2.37,2.11,4.04,4.76,4.99,7.97l15.31,51.19h-17.09l-4.18-14.96h-28.22l3.56-14.96h20.47l-4.81-17.45h-17.27l-13.17,47.36h-17.09l15.4-51.19h0Z"/>
  <path class="cls-7" d="M444.41,69.52c0-1.36.21-2.73.62-4.09s1.07-2.6,1.96-3.69c.89-1.1,2.05-1.99,3.47-2.67,1.42-.68,3.15-1.02,5.16-1.02,1.84,0,3.56.34,5.16,1.02s3,1.62,4.18,2.8l37.83,38.99v-41.93h15.4v51.72c0,1.37-.22,2.73-.67,4.1-.44,1.37-1.11,2.6-2,3.69-.89,1.1-2.05,1.99-3.47,2.67s-3.12,1.02-5.07,1.02c-2.08,0-3.86-.34-5.34-1.02-1.48-.68-2.82-1.62-4.01-2.8l-37.83-38.99v41.93h-15.4v-51.72h.01Z"/>
  <path class="cls-7" d="M526.21,70.06c0-1.6.3-3.08.89-4.45.59-1.36,1.38-2.54,2.36-3.52.98-.98,2.14-1.75,3.47-2.31,1.34-.56,2.72-.85,4.14-.85h56.08v14.96h-51.54v8.01h44.51v14.96h-44.51v9.44h51.54v14.96h-55.46c-1.6,0-3.12-.3-4.54-.89-1.42-.59-2.64-1.38-3.65-2.36-1.01-.98-1.81-2.14-2.4-3.47-.59-1.34-.89-2.72-.89-4.14v-40.33h0Z"/>
  <path class="cls-7" d="M629.74,73.88h-29.91v-14.96h75.04v14.96h-29.73v47.36h-15.4v-47.36Z"/>
  <path class="cls-7" d="M711.92,72.1c0-2.2.04-4.17.13-5.92.09-1.75.33-3.23.71-4.45s.96-2.14,1.74-2.76c.77-.62,1.84-.93,3.2-.93,1.01,0,1.94.19,2.8.58s1.72.92,2.58,1.6c.86.68,1.75,1.51,2.67,2.49s1.97,2.09,3.16,3.34l47.18,49.85v-56.97h6.5v48.87c0,2.26-.04,4.26-.13,6.01-.09,1.75-.33,3.25-.71,4.5-.39,1.25-.97,2.2-1.74,2.85-.77.65-1.84.98-3.2.98-1.01,0-1.95-.19-2.8-.58-.86-.39-1.71-.92-2.54-1.6-.83-.68-1.71-1.51-2.63-2.49-.92-.98-1.97-2.09-3.16-3.34l-47.27-49.94v57.06h-6.5v-49.14h.01Z"/>
  <path class="cls-7" d="M788.84,115.19h24.66v-50.21h-24.66v-6.05h57.15v6.05h-25.99v50.21h25.99v6.05h-57.15v-6.05Z"/>
  <path class="cls-7" d="M852.22,72.1c0-2.2.04-4.17.13-5.92.09-1.75.32-3.23.71-4.45s.96-2.14,1.74-2.76c.77-.62,1.84-.93,3.2-.93,1.01,0,1.94.19,2.8.58s1.72.92,2.58,1.6,1.75,1.51,2.67,2.49,1.97,2.09,3.16,3.34l47.18,49.85v-56.97h6.5v48.87c0,2.26-.04,4.26-.13,6.01-.09,1.75-.33,3.25-.71,4.5s-.97,2.2-1.74,2.85c-.77.65-1.84.98-3.2.98-1.01,0-1.95-.19-2.8-.58-.86-.39-1.71-.92-2.54-1.6-.83-.68-1.71-1.51-2.63-2.49-.92-.98-1.97-2.09-3.16-3.34l-47.27-49.94v57.06h-6.5v-49.14h0Z"/>
  <path class="cls-7" d="M931.81,65.43c0-1.84.64-3.38,1.91-4.63,1.28-1.25,2.8-1.87,4.59-1.87h60.44v6.05h-60.44v21.45h53.06v6.05h-53.06v22.7h60.44v6.05h-60.44c-1.84,0-3.38-.64-4.63-1.91-1.25-1.28-1.87-2.8-1.87-4.58v-49.32h0Z"/>
</svg>