<?xml version="1.0" encoding="utf-8"?>
<!-- Generator: Adobe Illustrator 28.3.0, SVG Export Plug-In . SVG Version: 6.00 Build 0)  -->
<svg version="1.1" id="Layer_1" xmlns="http://www.w3.org/2000/svg" xmlns:xlink="http://www.w3.org/1999/xlink" x="0px" y="0px"
	 viewBox="0 0 999 181" style="enable-background:new 0 0 999 181;" xml:space="preserve">
<style type="text/css">
	.st0{clip-path:url(#SVGID_00000104681252431283483850000007721554115704904877_);}
	.st1{fill:url(#SVGID_00000181072689711301232620000005605957144454675881_);}
	.st2{fill:url(#SVGID_00000134964069175097076260000017642436929781677246_);}
	.st3{fill:#FFFFFF;}
	.st4{fill-rule:evenodd;clip-rule:evenodd;fill:url(#SVGID_00000101818517414325484580000007677574792298229130_);}
</style>
<g>
	<g>
		<defs>
			<rect id="SVGID_1_" x="8.6" y="20.8" width="177.8" height="111.4"/>
		</defs>
		<clipPath id="SVGID_00000145765041353492806380000012610768114872195744_">
			<use xlink:href="#SVGID_1_"  style="overflow:visible;"/>
		</clipPath>
		<g style="clip-path:url(#SVGID_00000145765041353492806380000012610768114872195744_);">
			
				<linearGradient id="SVGID_00000021832096865756976440000006123264078992430514_" gradientUnits="userSpaceOnUse" x1="96.3085" y1="38.1586" x2="99.0752" y2="160.5108" gradientTransform="matrix(1 0 0 -1 0 182)">
				<stop  offset="0" style="stop-color:#FF4E04"/>
				<stop  offset="1" style="stop-color:#FF7F48"/>
			</linearGradient>
			<path style="fill:url(#SVGID_00000021832096865756976440000006123264078992430514_);" d="M185.8,119.9c0,0.8,0,1.7,0,2.5
				c0,3.3-0.2,6.6-0.5,9.8h-56.9c-1.1-16.1-14.5-28.9-30.9-28.9c-16.4,0-29.8,12.7-30.9,28.9H9.7c-0.4-3.2-0.5-6.5-0.5-9.8
				c0-0.8,0-1.7,0-2.5c0.1-3.1,0.3-6.3,0.7-9.3h47L16.5,87.2l-7.8-4.5c2.6-6.9,5.9-13.4,9.9-19.4l9,5.2l46.6,27l-26.5-46
				c4-2.7,8.2-5.1,12.6-7.2l26.5,46V21.4c3.6-0.4,7.2-0.6,10.9-0.6c3.7,0,7.3,0.2,10.9,0.6v66.7l26.5-46c4.4,2.1,8.6,4.5,12.6,7.2
				l-26.5,46l46.6-27l9-5.2c4,6,7.3,12.5,9.9,19.4l-7.8,4.5L138,110.6h47C185.5,113.7,185.7,116.8,185.8,119.9z"/>
			
				<linearGradient id="SVGID_00000000936283431117795530000003541696896719312262_" gradientUnits="userSpaceOnUse" x1="97.4716" y1="47.6681" x2="97.8286" y2="69.7598" gradientTransform="matrix(1 0 0 -1 0 182)">
				<stop  offset="0" style="stop-color:#FF4E04"/>
				<stop  offset="1" style="stop-color:#FF7F48"/>
			</linearGradient>
			<path style="fill:url(#SVGID_00000000936283431117795530000003541696896719312262_);" d="M120,132.2
				c-1.9-11.4-11.2-20.1-22.5-20.1s-20.5,8.7-22.5,20.1H120z"/>
		</g>
	</g>
	<path class="st3" d="M269.1,134.2c-7.1,0-13.3-1.3-18.7-4c-5.2-2.7-9.3-6.6-12.1-11.7c-2.9-5.1-4.1-11.3-3.8-18.4h17
		c-0.3,3.7,0.2,6.9,1.6,9.6c1.5,2.7,3.6,4.7,6.4,6.2c2.9,1.5,6.1,2.2,9.8,2.2c3.6,0,6.6-0.5,9-1.6c2.5-1.2,4.3-2.8,5.6-4.7
		c1.4-2.1,2.1-4.5,2.1-7.3c0-3.2-0.9-5.8-2.7-8c-1.8-2.2-4-3.9-6.7-5.2c-2.6-1.3-6.2-2.8-10.8-4.6c-6-2.3-11-4.4-14.8-6.5
		c-3.8-2.2-7-5.2-9.6-9.2c-2.7-4-4-9.2-4-15.5c0-5.7,1.3-10.8,3.8-15.1c2.7-4.3,6.4-7.7,11.3-10.1c4.8-2.5,10.5-3.7,17-3.7
		c7.1,0,13.2,1.3,18.2,4c5.1,2.7,8.9,6.4,11.2,11.1c2.5,4.7,3.5,10.2,3,16.4h-17.2c0.1-3.2-0.4-5.9-1.6-8.1c-1.2-2.4-3-4.2-5.3-5.5
		c-2.4-1.3-5.2-1.9-8.4-1.9c-3.1,0-5.7,0.5-7.8,1.6c-2.2,1-3.8,2.5-5,4.4c-1.1,2-1.6,4.2-1.6,6.8c0,2.9,0.8,5.3,2.5,7.4
		c1.8,2,3.9,3.7,6.5,5c2.6,1.4,6.1,3,10.7,4.9c6.1,2.5,11.1,4.8,15,7.1c3.8,2.2,7.1,5.3,9.8,9.3c2.8,4,4.1,9.1,4.1,15.2
		c0,5.8-1.4,11-4.3,15.5c-2.8,4.4-6.8,7.9-12,10.4C282,132.9,276,134.2,269.1,134.2z"/>
	<path class="st3" d="M318.9,51.4h16.3v106.3h-16.3V51.4z M362.4,49.5c7.8,0,14.8,1.9,21,5.6c6.3,3.8,11.3,8.9,14.8,15.4
		c3.6,6.4,5.3,13.5,5.3,21.3s-1.8,15-5.3,21.5c-3.6,6.4-8.5,11.5-14.8,15.2c-6.2,3.8-13.2,5.6-21,5.6c-7.7,0-14.6-1.9-20.6-5.6
		c-6-3.7-10.7-8.8-14.1-15.2c-3.3-6.4-4.9-13.6-4.9-21.5s1.6-15,4.9-21.5c3.4-6.4,8-11.5,14.1-15.2
		C347.8,51.4,354.7,49.5,362.4,49.5z M361,65c-4.8,0-9.2,1.2-13.2,3.6c-3.8,2.3-6.9,5.4-9.2,9.5c-2.3,4-3.4,8.6-3.4,13.8
		s1.1,9.7,3.4,13.8c2.3,4,5.3,7.3,9.2,9.6c3.9,2.3,8.3,3.4,13.2,3.4c4.8,0,9.2-1.1,13.2-3.4c4-2.4,7.2-5.6,9.5-9.6
		c2.3-4,3.4-8.6,3.4-13.8s-1.1-9.7-3.4-13.8c-2.3-4-5.4-7.2-9.5-9.5C370.3,66.2,365.9,65,361,65z"/>
	<path class="st3" d="M417.5,51.4h16.1v24.9l-7.1,5.5c0.4-6.2,2-11.8,4.7-16.7c2.8-4.9,6.4-8.8,10.8-11.5c4.4-2.8,9.3-4.1,14.7-4.1
		c1.8,0,3.9,0.3,6.5,0.9v15.1c-2.3,0-4.5,0-6.8,0c-4.3,0-8.2,0.9-11.7,2.7c-3.4,1.7-6,4.3-8,8s-3,8.2-3,13.8v42.5h-16.3V51.4z"/>
	<path class="st3" d="M473.1,51.4h16.3v80.8h-16.3V51.4z"/>
	<path class="st3" d="M563.7,84.3c0-5.7-1.7-10.4-5.2-13.9c-3.5-3.6-7.9-5.3-13.5-5.3c-3.9,0-7.5,0.8-10.5,2.5c-3,1.7-5.3,4-7.1,7.1
		c-1.7,3-2.5,6.4-2.5,10.4l-5.5-10.7c0.7-4.8,2.4-9.1,5-12.9c2.7-3.8,6-6.7,10.1-8.7c4.1-2.1,8.7-3.1,13.6-3.1
		c6.2,0,11.7,1.5,16.6,4.4c4.8,2.9,8.6,6.9,11.2,12.1c2.7,5.2,4,11.3,4,18.1v48h-16.3V84.3z M508.7,51.4H525v80.8h-16.3V51.4z"/>
	<path class="st3" d="M628.8,118.5c-6.2,0-11.9-1.5-17.2-4.4c-5.2-3-9.4-7.1-12.4-12.3c-3-5.3-4.4-11.3-4.4-17.9
		c0-6.3,1.5-12.1,4.6-17.3c3.1-5.3,7.2-9.5,12.4-12.6c5.2-3.1,11-4.6,17.2-4.6c6.3,0,12.1,1.5,17.3,4.6c5.2,3.1,9.4,7.3,12.4,12.6
		c3.1,5.2,4.6,11,4.6,17.3c0,6.4-1.5,12.3-4.6,17.6c-3.1,5.2-7.2,9.4-12.4,12.4C641.1,116.9,635.2,118.5,628.8,118.5z M651.9,160.2
		c0-4.2-1.1-7.6-3.3-9.9c-2.1-2.3-5.5-3.4-10.2-3.4h-47.4V131l18.2-27.4l14.2,8.3l-15.4,22.4l-4.4-3.3H642c8.5,0,15,2.5,19.4,7.4
		c4.5,5,6.8,12.3,6.8,21.8H651.9z M629,102.8c3.4,0,6.4-0.8,9.2-2.5c2.9-1.7,5.1-3.9,6.7-6.8c1.7-3,2.5-6.2,2.5-9.8
		c0-3.4-0.8-6.5-2.5-9.3c-1.6-3-3.8-5.3-6.7-7c-2.8-1.7-5.8-2.5-9.2-2.5c-3.4,0-6.4,0.8-9.2,2.5c-2.8,1.7-5,3.9-6.7,6.8
		c-1.6,2.9-2.4,6-2.4,9.5c0,3.6,0.8,6.8,2.4,9.8c1.6,2.9,3.8,5.1,6.5,6.8C622.5,101.9,625.6,102.8,629,102.8z M640.2,60.9l16.3-21.2
		l13,9.5l-15.8,20.9L640.2,60.9z"/>
	<path class="st3" d="M705.9,28.6h35.4l33.3,103.6h-27.7l-23.4-78.6l-23.7,78.6h-27.7L705.9,28.6z M703.9,91.8h38.2l4.9,21.6h-47.1
		L703.9,91.8z"/>
	<path class="st3" d="M782.3,28.6h26.3v103.6h-26.3V28.6z"/>
	
		<linearGradient id="SVGID_00000085251081369379531790000008039495388792581505_" gradientUnits="userSpaceOnUse" x1="480.7393" y1="139.0104" x2="481.3983" y2="157.351" gradientTransform="matrix(1 0 0 -1 0 182)">
		<stop  offset="0" style="stop-color:#FF4E04"/>
		<stop  offset="1" style="stop-color:#FF7F48"/>
	</linearGradient>
	<path style="fill-rule:evenodd;clip-rule:evenodd;fill:url(#SVGID_00000085251081369379531790000008039495388792581505_);" d="
		M472.7,33.4c0.3,4.4,3.9,7.9,8.4,7.9c4.5,0,8.1-3.5,8.4-7.9H472.7z"/>
</g>
</svg>
