<?xml version="1.0" encoding="utf-8"?>
<!-- Generator: Adobe Illustrator 28.3.0, SVG Export Plug-In . SVG Version: 6.00 Build 0)  -->
<svg version="1.1" id="Layer_1" xmlns="http://www.w3.org/2000/svg" xmlns:xlink="http://www.w3.org/1999/xlink" x="0px" y="0px"
	 viewBox="0 0 410 410" style="enable-background:new 0 0 410 410;" xml:space="preserve">
<g id="Logo">
	<g>
		<g>
			<path d="M217.8,62.1v42.8c0,34.2-27.7,61.8-61.8,61.8H61.8V62.1H217.8z"/>
			<path d="M61.8,191.5h94.1c34.2,0,61.8,27.7,61.8,61.8v94.6h-67.9c-48.5,0-88-39.5-88-88C61.8,259.8,61.8,191.5,61.8,191.5z"/>
			<path d="M348.2,150.1v16.6h-43.8c-34.2,0-61.8-27.7-61.8-61.8V62.1h17.5C308.8,62.1,348.2,101.5,348.2,150.1z"/>
			<path d="M304.5,191.5h43.8v156.5H242.6v-94.6C242.4,219.3,270.2,191.5,304.5,191.5z"/>
		</g>
	</g>
</g>
</svg>
